<svg width="40" height="40" viewBox="0 0 40 40" fill="none" xmlns="http://www.w3.org/2000/svg" xmlns:xlink="http://www.w3.org/1999/xlink">
<path d="M6.716,4.858C6.716,5.884 5.884,6.716 4.858,6.716L4.858,8.716C6.989,8.716 8.716,6.989 8.716,4.858L6.716,4.858ZM4.858,6.716C3.832,6.716 3,5.884 3,4.858L1,4.858C1,6.989 2.727,8.716 4.858,8.716L4.858,6.716ZM3,4.858C3,3.832 3.832,3 4.858,3L4.858,1C2.727,1 1,2.727 1,4.858L3,4.858ZM4.858,3C5.884,3 6.716,3.832 6.716,4.858L8.716,4.858C8.716,2.727 6.989,1 4.858,1L4.858,3Z" fill="#FFFFFF"/>
<path d="M21.6,4.858C21.6,5.884 20.768,6.716 19.742,6.716L19.742,8.716C21.872,8.716 23.6,6.989 23.6,4.858L21.6,4.858ZM19.742,6.716C18.715,6.716 17.884,5.884 17.884,4.858L15.884,4.858C15.884,6.989 17.611,8.716 19.742,8.716L19.742,6.716ZM17.884,4.858C17.884,3.832 18.715,3 19.742,3L19.742,1C17.611,1 15.884,2.727 15.884,4.858L17.884,4.858ZM19.742,3C20.768,3 21.6,3.832 21.6,4.858L23.6,4.858C23.6,2.727 21.872,1 19.742,1L19.742,3Z" fill="#FFFFFF"/>
<path d="M36.681,4.858C36.681,5.884 35.849,6.716 34.823,6.716L34.823,8.716C36.954,8.716 38.681,6.989 38.681,4.858L36.681,4.858ZM34.823,6.716C33.797,6.716 32.965,5.884 32.965,4.858L30.965,4.858C30.965,6.989 32.692,8.716 34.823,8.716L34.823,6.716ZM32.965,4.858C32.965,3.832 33.797,3 34.823,3L34.823,1C32.692,1 30.965,2.727 30.965,4.858L32.965,4.858ZM34.823,3C35.849,3 36.681,3.832 36.681,4.858L38.681,4.858C38.681,2.727 36.954,1 34.823,1L34.823,3Z" fill="#FFFFFF"/>
<path d="M36.681,34.661C36.681,35.688 35.849,36.52 34.823,36.52L34.823,38.52C36.954,38.52 38.681,36.792 38.681,34.661L36.681,34.661ZM34.823,36.52C33.797,36.52 32.965,35.688 32.965,34.661L30.965,34.661C30.965,36.792 32.692,38.52 34.823,38.52L34.823,36.52ZM32.965,34.661C32.965,33.635 33.797,32.803 34.823,32.803L34.823,30.803C32.692,30.803 30.965,32.531 30.965,34.661L32.965,34.661ZM34.823,32.803C35.849,32.803 36.681,33.635 36.681,34.661L38.681,34.661C38.681,32.531 36.954,30.803 34.823,30.803L34.823,32.803Z" fill="#FFFFFF"/>
<path d="M21.6,34.661C21.6,35.688 20.768,36.52 19.742,36.52L19.742,38.52C21.872,38.52 23.6,36.792 23.6,34.661L21.6,34.661ZM19.742,36.52C18.715,36.52 17.884,35.688 17.884,34.661L15.884,34.661C15.884,36.792 17.611,38.52 19.742,38.52L19.742,36.52ZM17.884,34.661C17.884,33.635 18.715,32.803 19.742,32.803L19.742,30.803C17.611,30.803 15.884,32.531 15.884,34.661L17.884,34.661ZM19.742,32.803C20.768,32.803 21.6,33.635 21.6,34.661L23.6,34.661C23.6,32.531 21.872,30.803 19.742,30.803L19.742,32.803Z" fill="#FFFFFF"/>
<path d="M4.858,7.716L5.229,6.788L3.858,6.239L3.858,7.716L4.858,7.716ZM4.858,23.103L3.858,23.103L3.858,24.103L4.858,24.103L4.858,23.103ZM14.421,23.103L14.421,24.103L14.713,24.103L14.959,23.946L14.421,23.103ZM19.741,19.706L19.741,18.706L19.449,18.706L19.203,18.863L19.741,19.706ZM34.841,19.706L34.841,20.706L35.212,18.777L34.841,19.706ZM3.858,7.716L3.858,23.103L5.858,23.103L5.858,7.716L3.858,7.716ZM4.858,24.103L14.421,24.103L14.421,22.103L4.858,22.103L4.858,24.103ZM14.959,23.946L20.28,20.549L19.203,18.863L13.883,22.261L14.959,23.946ZM19.741,20.706L34.841,20.706L34.841,18.706L19.741,18.706L19.741,20.706ZM35.212,18.777L5.229,6.788L4.486,8.645L34.47,20.634L35.212,18.777ZM33.823,7.716L33.823,31.804L35.823,31.804L35.823,7.716L33.823,7.716ZM35.823,31.804L35.823,7.716L33.823,7.716L33.823,31.804L35.823,31.804ZM18.741,7.716L18.741,31.804L20.741,31.804L20.741,7.716L18.741,7.716Z" fill="#FFFFFF"/>
</svg>
