<svg width="60" height="22" viewBox="0 0 60 22" fill="none" xmlns="http://www.w3.org/2000/svg" xmlns:xlink="http://www.w3.org/1999/xlink">
<path d="M57.363,16.678L57.263,15.683L57.19,15.691L57.119,15.709L57.363,16.678ZM57.58,16.437L58.58,16.432L58.575,15.437L57.58,15.437L57.58,16.437ZM57.7,12.801L58.681,12.997L58.701,12.899L58.7,12.8L57.7,12.801ZM57.147,11.597L56.215,11.959L56.305,12.192L56.495,12.355L57.147,11.597ZM43.684,6.973L43.23,7.864L43.374,7.937L43.534,7.962L43.684,6.973ZM33.256,2.518L33.586,1.574L33.499,1.543L33.407,1.529L33.256,2.518ZM25.381,2.012L25.359,3.012L25.382,3.012L25.404,3.012L25.381,2.012ZM18.012,2.469L17.867,1.48L17.801,1.489L17.738,1.507L18.012,2.469ZM8.378,5.985L8.521,6.975L8.661,6.955L8.789,6.897L8.378,5.985ZM3.875,6.636L3.955,7.632L3.987,7.63L4.018,7.625L3.875,6.636ZM3.658,6.828L2.677,6.632L2.673,6.657L3.658,6.828ZM3.056,10.296L3.809,10.954L3.993,10.743L4.041,10.467L3.056,10.296ZM2.093,11.958L1.148,11.632L1.127,11.692L1.114,11.755L2.093,11.958ZM3.345,15.908L2.527,16.483L2.722,16.76L3.045,16.862L3.345,15.908ZM3.49,15.908L3.825,14.966L3.509,14.853L3.19,14.954L3.49,15.908ZM54.838,18.346L57.608,17.648L57.119,15.709L54.349,16.407L54.838,18.346ZM57.463,17.673C57.77,17.642 58.055,17.498 58.262,17.269L56.775,15.931C56.901,15.79 57.075,15.702 57.263,15.683L57.463,17.673ZM58.262,17.269C58.468,17.039 58.582,16.741 58.58,16.432L56.58,16.442C56.579,16.254 56.649,16.071 56.775,15.931L58.262,17.269ZM57.58,16.437C58.58,16.437 58.58,16.438 58.58,16.438C58.58,16.437 58.58,16.437 58.58,16.437C58.58,16.437 58.58,16.437 58.58,16.437C58.58,16.437 58.58,16.436 58.58,16.436C58.58,16.434 58.58,16.432 58.58,16.429C58.58,16.424 58.58,16.416 58.58,16.405C58.58,16.383 58.58,16.35 58.58,16.309C58.581,16.226 58.581,16.106 58.582,15.96C58.584,15.669 58.588,15.275 58.595,14.863C58.602,14.45 58.613,14.025 58.63,13.669C58.638,13.491 58.647,13.336 58.657,13.212C58.662,13.15 58.667,13.099 58.672,13.06C58.675,13.04 58.677,13.025 58.678,13.014C58.68,13.002 58.681,12.997 58.681,12.997L56.72,12.605C56.672,12.843 56.648,13.225 56.632,13.577C56.614,13.96 56.603,14.406 56.595,14.827C56.588,15.249 56.584,15.651 56.582,15.948C56.581,16.096 56.581,16.218 56.58,16.303C56.58,16.346 56.58,16.379 56.58,16.402C56.58,16.413 56.58,16.422 56.58,16.428C56.58,16.431 56.58,16.433 56.58,16.435C56.58,16.436 56.58,16.436 56.58,16.437C56.58,16.437 56.58,16.437 56.58,16.437C56.58,16.437 56.58,16.437 56.58,16.437C56.58,16.437 56.58,16.437 57.58,16.437ZM58.7,12.8C58.7,12.427 58.619,12.059 58.464,11.72L56.647,12.556C56.682,12.633 56.7,12.717 56.7,12.802L58.7,12.8ZM58.464,11.72C58.308,11.382 58.081,11.081 57.798,10.838L56.495,12.355C56.559,12.411 56.611,12.479 56.647,12.556L58.464,11.72ZM58.079,11.234C57.983,10.987 57.705,10.324 57.3,9.667C57.097,9.338 56.847,8.984 56.553,8.678C56.267,8.381 55.878,8.066 55.389,7.918L54.81,9.833C54.839,9.841 54.944,9.89 55.112,10.066C55.273,10.232 55.438,10.457 55.596,10.715C55.914,11.231 56.142,11.773 56.215,11.959L58.079,11.234ZM55.389,7.918C55.056,7.818 54.186,7.656 53.162,7.478C52.099,7.293 50.774,7.076 49.46,6.865C46.831,6.442 44.233,6.045 43.834,5.984L43.534,7.962C43.93,8.021 46.522,8.418 49.143,8.839C50.454,9.05 51.769,9.266 52.82,9.448C53.909,9.638 54.625,9.777 54.81,9.833L55.389,7.918ZM44.138,6.082C40.726,4.343 37.201,2.837 33.586,1.574L32.926,3.462C36.456,4.695 39.899,6.166 43.23,7.864L44.138,6.082ZM33.407,1.529C30.744,1.124 28.051,0.951 25.358,1.012L25.404,3.012C27.981,2.953 30.558,3.118 33.106,3.506L33.407,1.529ZM25.403,1.012C22.882,0.957 20.361,1.114 17.867,1.48L18.157,3.459C20.541,3.109 22.95,2.959 25.359,3.012L25.403,1.012ZM17.738,1.507C14.399,2.457 11.134,3.649 7.968,5.074L8.789,6.897C11.866,5.513 15.04,4.354 18.285,3.431L17.738,1.507ZM8.236,4.996L3.732,5.646L4.018,7.625L8.521,6.975L8.236,4.996ZM3.795,5.639C3.526,5.661 3.271,5.769 3.07,5.948L4.399,7.443C4.275,7.553 4.12,7.619 3.955,7.632L3.795,5.639ZM3.07,5.948C2.868,6.127 2.731,6.367 2.678,6.632L4.639,7.025C4.606,7.187 4.522,7.334 4.399,7.443L3.07,5.948ZM2.673,6.657L2.071,10.125L4.041,10.467L4.643,6.999L2.673,6.657ZM2.303,9.638C1.793,10.222 1.401,10.899 1.148,11.632L3.038,12.284C3.207,11.796 3.469,11.344 3.809,10.954L2.303,9.638ZM1.114,11.755C0.91,12.738 0.981,13.759 1.32,14.704L3.203,14.029C2.988,13.43 2.943,12.784 3.072,12.161L1.114,11.755ZM1.443,14.942L2.527,16.483L4.163,15.332L3.079,13.791L1.443,14.942ZM3.045,16.862C3.287,16.938 3.547,16.938 3.79,16.862L3.19,14.954C3.338,14.907 3.497,14.907 3.645,14.954L3.045,16.862ZM3.154,16.85L7.08,18.247L7.75,16.362L3.825,14.966L3.154,16.85Z" fill="#FFFFFF"/>
<path d="M47.826,12.825L47.826,13.825L47.826,12.825ZM10.931,16.703L9.931,16.709L10.931,16.703ZM14.809,12.801L14.809,11.801L14.809,12.801ZM42.949,16.703C42.949,17.667 43.235,18.61 43.771,19.413L45.434,18.301C45.118,17.828 44.949,17.272 44.949,16.703L42.949,16.703ZM43.771,19.413C44.307,20.215 45.069,20.84 45.96,21.209L46.725,19.361C46.2,19.143 45.75,18.775 45.434,18.301L43.771,19.413ZM45.96,21.209C46.851,21.578 47.832,21.675 48.778,21.486L48.388,19.525C47.83,19.636 47.251,19.579 46.725,19.361L45.96,21.209ZM48.778,21.486C49.724,21.298 50.593,20.834 51.275,20.152L49.861,18.737C49.459,19.14 48.946,19.414 48.388,19.525L48.778,21.486ZM51.275,20.152C51.957,19.47 52.422,18.6 52.61,17.654L50.649,17.264C50.537,17.822 50.263,18.335 49.861,18.737L51.275,20.152ZM52.61,17.654C52.798,16.708 52.702,15.728 52.333,14.836L50.485,15.602C50.703,16.127 50.76,16.706 50.649,17.264L52.61,17.654ZM52.333,14.836C51.963,13.945 51.338,13.183 50.536,12.647L49.425,14.31C49.898,14.627 50.267,15.076 50.485,15.602L52.333,14.836ZM50.536,12.647C49.734,12.111 48.791,11.825 47.826,11.825L47.826,13.825C48.396,13.825 48.952,13.994 49.425,14.31L50.536,12.647ZM47.826,11.825C46.533,11.825 45.292,12.339 44.378,13.254L45.792,14.668C46.331,14.129 47.063,13.825 47.826,13.825L47.826,11.825ZM44.378,13.254C43.463,14.169 42.949,15.409 42.949,16.703L44.949,16.703C44.949,15.94 45.252,15.208 45.792,14.668L44.378,13.254ZM9.931,16.709C9.937,17.672 10.228,18.612 10.768,19.41L12.425,18.29C12.106,17.819 11.935,17.265 11.931,16.697L9.931,16.709ZM10.768,19.41C11.307,20.209 12.071,20.829 12.963,21.193L13.72,19.342C13.194,19.127 12.743,18.761 12.425,18.29L10.768,19.41ZM12.963,21.193C13.855,21.558 14.834,21.65 15.779,21.459L15.381,19.499C14.824,19.612 14.246,19.557 13.72,19.342L12.963,21.193ZM15.779,21.459C16.723,21.267 17.589,20.8 18.268,20.117L16.849,18.707C16.449,19.11 15.938,19.386 15.381,19.499L15.779,21.459ZM18.268,20.117C18.947,19.434 19.409,18.564 19.594,17.619L17.632,17.234C17.522,17.791 17.25,18.304 16.849,18.707L18.268,20.117ZM19.594,17.619C19.78,16.674 19.682,15.695 19.312,14.805L17.465,15.574C17.683,16.098 17.741,16.676 17.632,17.234L19.594,17.619ZM19.312,14.805C18.942,13.916 18.317,13.156 17.515,12.621L16.405,14.285C16.878,14.6 17.247,15.049 17.465,15.574L19.312,14.805ZM17.515,12.621C16.714,12.087 15.772,11.801 14.809,11.801L14.809,13.801C15.377,13.801 15.932,13.97 16.405,14.285L17.515,12.621ZM14.809,11.801C14.166,11.801 13.529,11.929 12.935,12.176L13.703,14.022C14.054,13.876 14.429,13.801 14.809,13.801L14.809,11.801ZM12.935,12.176C12.341,12.423 11.802,12.784 11.349,13.241L12.768,14.65C13.035,14.381 13.353,14.168 13.703,14.022L12.935,12.176ZM11.349,13.241C10.896,13.697 10.537,14.238 10.294,14.833L12.145,15.59C12.289,15.239 12.5,14.92 12.768,14.65L11.349,13.241ZM10.294,14.833C10.05,15.428 9.927,16.066 9.931,16.709L11.931,16.697C11.929,16.317 12.002,15.941 12.145,15.59L10.294,14.833ZM39.903,17.34L21.985,17.34L21.985,19.34L39.903,19.34L39.903,17.34Z" fill="#FFFFFF"/>
</svg>
