<svg width="40" height="38" viewBox="0 0 40 38" fill="none" xmlns="http://www.w3.org/2000/svg" xmlns:xlink="http://www.w3.org/1999/xlink">
<path d="M6.716,2.858C6.716,3.884 5.884,4.716 4.858,4.716L4.858,6.716C6.989,6.716 8.716,4.989 8.716,2.858L6.716,2.858ZM4.858,4.716C3.832,4.716 3,3.884 3,2.858L1,2.858C1,4.989 2.727,6.716 4.858,6.716L4.858,4.716ZM3,2.858C3,1.832 3.832,1 4.858,1L4.858,-1C2.727,-1 1,0.727 1,2.858L3,2.858ZM4.858,1C5.884,1 6.716,1.832 6.716,2.858L8.716,2.858C8.716,0.727 6.989,-1 4.858,-1L4.858,1Z" fill="#FFFFFF"/>
<path d="M21.6,2.858C21.6,3.884 20.768,4.716 19.742,4.716L19.742,6.716C21.873,6.716 23.6,4.989 23.6,2.858L21.6,2.858ZM19.742,4.716C18.716,4.716 17.884,3.884 17.884,2.858L15.884,2.858C15.884,4.989 17.611,6.716 19.742,6.716L19.742,4.716ZM17.884,2.858C17.884,1.832 18.716,1 19.742,1L19.742,-1C17.611,-1 15.884,0.727 15.884,2.858L17.884,2.858ZM19.742,1C20.768,1 21.6,1.832 21.6,2.858L23.6,2.858C23.6,0.727 21.873,-1 19.742,-1L19.742,1Z" fill="#FFFFFF"/>
<path d="M36.681,2.858C36.681,3.884 35.849,4.716 34.823,4.716L34.823,6.716C36.954,6.716 38.681,4.989 38.681,2.858L36.681,2.858ZM34.823,4.716C33.797,4.716 32.965,3.884 32.965,2.858L30.965,2.858C30.965,4.989 32.692,6.716 34.823,6.716L34.823,4.716ZM32.965,2.858C32.965,1.832 33.797,1 34.823,1L34.823,-1C32.692,-1 30.965,0.727 30.965,2.858L32.965,2.858ZM34.823,1C35.849,1 36.681,1.832 36.681,2.858L38.681,2.858C38.681,0.727 36.954,-1 34.823,-1L34.823,1Z" fill="#FFFFFF"/>
<path d="M36.681,32.661C36.681,33.688 35.849,34.52 34.823,34.52L34.823,36.52C36.954,36.52 38.681,34.792 38.681,32.661L36.681,32.661ZM34.823,34.52C33.797,34.52 32.965,33.688 32.965,32.661L30.965,32.661C30.965,34.792 32.692,36.52 34.823,36.52L34.823,34.52ZM32.965,32.661C32.965,31.635 33.797,30.803 34.823,30.803L34.823,28.803C32.692,28.803 30.965,30.531 30.965,32.661L32.965,32.661ZM34.823,30.803C35.849,30.803 36.681,31.635 36.681,32.661L38.681,32.661C38.681,30.531 36.954,28.803 34.823,28.803L34.823,30.803Z" fill="#FFFFFF"/>
<path d="M21.6,32.661C21.6,33.688 20.768,34.52 19.742,34.52L19.742,36.52C21.873,36.52 23.6,34.792 23.6,32.661L21.6,32.661ZM19.742,34.52C18.716,34.52 17.884,33.688 17.884,32.661L15.884,32.661C15.884,34.792 17.611,36.52 19.742,36.52L19.742,34.52ZM17.884,32.661C17.884,31.635 18.716,30.803 19.742,30.803L19.742,28.803C17.611,28.803 15.884,30.531 15.884,32.661L17.884,32.661ZM19.742,30.803C20.768,30.803 21.6,31.635 21.6,32.661L23.6,32.661C23.6,30.531 21.873,28.803 19.742,28.803L19.742,30.803Z" fill="#FFFFFF"/>
<path d="M4.858,5.716L5.229,4.788L3.858,4.239L3.858,5.716L4.858,5.716ZM4.858,21.103L3.858,21.103L3.858,22.103L4.858,22.103L4.858,21.103ZM14.421,21.103L14.421,22.103L14.713,22.103L14.959,21.946L14.421,21.103ZM19.741,17.706L19.741,16.706L19.449,16.706L19.203,16.863L19.741,17.706ZM34.841,17.706L34.841,18.706L35.212,16.777L34.841,17.706ZM3.858,5.716L3.858,21.103L5.858,21.103L5.858,5.716L3.858,5.716ZM4.858,22.103L14.421,22.103L14.421,20.103L4.858,20.103L4.858,22.103ZM14.959,21.946L20.28,18.549L19.203,16.863L13.883,20.261L14.959,21.946ZM19.741,18.706L34.841,18.706L34.841,16.706L19.741,16.706L19.741,18.706ZM35.212,16.777L5.229,4.788L4.486,6.645L34.47,18.634L35.212,16.777ZM33.823,5.716L33.823,29.804L35.823,29.804L35.823,5.716L33.823,5.716ZM35.823,29.804L35.823,5.716L33.823,5.716L33.823,29.804L35.823,29.804ZM18.741,5.716L18.741,29.804L20.741,29.804L20.741,5.716L18.741,5.716Z" fill="#FFFFFF"/>
</svg>
