<svg width="40" height="42" viewBox="0 0 40 42" fill="none" xmlns="http://www.w3.org/2000/svg" xmlns:xlink="http://www.w3.org/1999/xlink">
<path d="M2.727,40L1.727,40L1.727,41L2.727,41L2.727,40ZM2.727,2.8L1.727,2.794L1.727,2.8L2.727,2.8ZM5.454,0L5.454,-1L5.438,-1L5.422,-0.999L5.454,0ZM20,0L20.032,-0.999L20.016,-1L20,-1L20,0ZM22.727,2.8L23.727,2.8L23.727,2.794L22.727,2.8ZM22.727,40L22.727,41L23.727,41L23.727,40L22.727,40ZM24.854,16.364L24.854,17.364L24.941,17.364L25.027,17.349L24.854,16.364ZM37.272,13.745L36.277,13.645L36.272,13.695L36.272,13.745L37.272,13.745ZM3.727,40L3.727,2.8L1.727,2.8L1.727,40L3.727,40ZM3.727,2.806C3.73,2.336 3.915,1.885 4.243,1.548L2.81,0.153C2.121,0.86 1.733,1.807 1.727,2.794L3.727,2.806ZM4.243,1.548C4.571,1.211 5.016,1.015 5.486,0.999L5.422,-0.999C4.435,-0.968 3.499,-0.555 2.81,0.153L4.243,1.548ZM5.454,1L20,1L20,-1L5.454,-1L5.454,1ZM19.967,0.999C20.437,1.015 20.883,1.211 21.211,1.548L22.644,0.153C21.955,-0.555 21.019,-0.968 20.032,-0.999L19.967,0.999ZM21.211,1.548C21.539,1.885 21.724,2.336 21.727,2.806L23.727,2.794C23.721,1.807 23.333,0.86 22.644,0.153L21.211,1.548ZM21.727,2.8L21.727,40L23.727,40L23.727,2.8L21.727,2.8ZM22.727,39L2.727,39L2.727,41L22.727,41L22.727,39ZM23.636,17.364L24.854,17.364L24.854,15.364L23.636,15.364L23.636,17.364ZM24.854,16.364C25.027,17.349 25.026,17.349 25.025,17.349C25.025,17.349 25.025,17.349 25.024,17.349C25.024,17.349 25.023,17.349 25.023,17.349C25.022,17.35 25.021,17.35 25.02,17.35C25.018,17.35 25.018,17.35 25.018,17.35C25.018,17.35 25.02,17.35 25.026,17.349C25.037,17.348 25.057,17.345 25.087,17.342C25.147,17.337 25.239,17.332 25.351,17.334C25.583,17.339 25.866,17.377 26.132,17.489C26.386,17.595 26.627,17.767 26.813,18.066C27.004,18.372 27.182,18.881 27.182,19.727L29.182,19.727C29.182,18.601 28.944,17.703 28.51,17.008C28.073,16.307 27.482,15.885 26.904,15.643C26.338,15.407 25.789,15.344 25.397,15.335C25.198,15.33 25.03,15.339 24.907,15.35C24.846,15.356 24.796,15.362 24.758,15.367C24.739,15.37 24.723,15.372 24.71,15.374C24.704,15.375 24.698,15.376 24.693,15.377C24.691,15.377 24.689,15.377 24.687,15.378C24.686,15.378 24.685,15.378 24.684,15.378C24.684,15.378 24.683,15.378 24.683,15.378C24.683,15.378 24.682,15.379 24.854,16.364ZM27.182,19.727L27.182,33.636L29.182,33.636L29.182,19.727L27.182,19.727ZM27.182,33.636C27.182,35.107 27.766,36.518 28.806,37.558L30.22,36.143C29.555,35.478 29.182,34.577 29.182,33.636L27.182,33.636ZM28.806,37.558C29.846,38.598 31.256,39.182 32.727,39.182L32.727,37.182C31.787,37.182 30.885,36.808 30.22,36.143L28.806,37.558ZM32.727,39.182C34.198,39.182 35.608,38.598 36.648,37.558L35.234,36.143C34.569,36.808 33.667,37.182 32.727,37.182L32.727,39.182ZM36.648,37.558C37.688,36.518 38.272,35.107 38.272,33.636L36.272,33.636C36.272,34.577 35.899,35.478 35.234,36.143L36.648,37.558ZM38.272,33.636L38.272,13.745L36.272,13.745L36.272,33.636L38.272,33.636ZM37.272,13.745C38.267,13.845 38.268,13.845 38.268,13.844C38.268,13.844 38.268,13.843 38.268,13.843C38.268,13.841 38.268,13.84 38.268,13.839C38.268,13.836 38.269,13.833 38.269,13.83C38.27,13.822 38.27,13.813 38.271,13.803C38.273,13.781 38.275,13.752 38.277,13.717C38.281,13.645 38.285,13.546 38.286,13.424C38.288,13.179 38.278,12.836 38.232,12.423C38.14,11.601 37.902,10.485 37.317,9.313C36.12,6.912 33.554,4.456 28.331,3.666L28.032,5.643C32.663,6.344 34.643,8.433 35.528,10.206C35.984,11.12 36.171,11.997 36.244,12.646C36.28,12.969 36.287,13.232 36.286,13.408C36.285,13.496 36.283,13.562 36.28,13.603C36.279,13.623 36.278,13.637 36.277,13.645C36.277,13.648 36.277,13.65 36.277,13.65C36.277,13.65 36.277,13.65 36.277,13.649C36.277,13.649 36.277,13.648 36.277,13.648C36.277,13.647 36.277,13.647 36.277,13.647C36.277,13.646 36.277,13.645 37.272,13.745Z" fill="#FFFFFF"/>
<path d="M36.364,12.727L36.364,13.727L38.307,13.727L37.177,12.146L36.364,12.727ZM34.145,12.727L34.145,11.727L34.145,11.727L34.145,12.727ZM31.818,10.327L32.818,10.358L32.818,10.343L32.818,10.327L31.818,10.327ZM31.818,6.363L32.632,5.782L30.818,3.243L30.818,6.363L31.818,6.363ZM8.182,5.454L8.182,4.454L7.182,4.454L7.182,5.454L8.182,5.454ZM17.273,5.454L18.273,5.454L18.273,4.454L17.273,4.454L17.273,5.454ZM17.273,14.545L17.273,15.545L18.273,15.545L18.273,14.545L17.273,14.545ZM8.182,14.545L7.182,14.545L7.182,15.545L8.182,15.545L8.182,14.545ZM36.364,11.727L34.145,11.727L34.145,13.727L36.364,13.727L36.364,11.727ZM34.145,11.727C33.967,11.727 33.791,11.691 33.627,11.622L32.848,13.464C33.259,13.638 33.7,13.727 34.146,13.727L34.145,11.727ZM33.627,11.622C33.463,11.553 33.315,11.451 33.191,11.324L31.756,12.716C32.066,13.036 32.438,13.291 32.848,13.464L33.627,11.622ZM33.191,11.324C33.068,11.196 32.971,11.045 32.907,10.879L31.041,11.601C31.202,12.017 31.445,12.396 31.756,12.716L33.191,11.324ZM32.907,10.879C32.842,10.713 32.812,10.536 32.818,10.358L30.819,10.296C30.805,10.741 30.88,11.185 31.041,11.601L32.907,10.879ZM32.818,10.327L32.818,6.363L30.818,6.363L30.818,10.327L32.818,10.327ZM31.004,6.945L35.55,13.308L37.177,12.146L32.632,5.782L31.004,6.945ZM8.182,6.454L17.273,6.454L17.273,4.454L8.182,4.454L8.182,6.454ZM16.273,5.454L16.273,14.545L18.273,14.545L18.273,5.454L16.273,5.454ZM17.273,13.545L8.182,13.545L8.182,15.545L17.273,15.545L17.273,13.545ZM9.182,14.545L9.182,5.454L7.182,5.454L7.182,14.545L9.182,14.545Z" fill="#FFFFFF"/>
<line x1="0" y1="39" x2="25.455" y2="39" stroke="#FFFFFF" stroke-width="1" stroke-miterlimit="3.999327"/>
</svg>
