<svg width="42" height="42" viewBox="0 0 42 42" fill="none" xmlns="http://www.w3.org/2000/svg" xmlns:xlink="http://www.w3.org/1999/xlink">
<path d="M0.667,6.667L14.667,0.667L26.667,6.667L39.273,1.265C39.425,1.199 39.591,1.173 39.756,1.188C39.921,1.203 40.079,1.258 40.217,1.349C40.356,1.44 40.469,1.564 40.547,1.71C40.626,1.856 40.667,2.019 40.667,2.185L40.667,34.667L26.667,40.667L14.667,34.667L2.061,40.069C1.908,40.134 1.743,40.16 1.578,40.146C1.413,40.131 1.254,40.075 1.116,39.984C0.978,39.893 0.864,39.769 0.786,39.623C0.707,39.477 0.667,39.314 0.667,39.149L0.667,6.667ZM28.667,35.457L36.667,32.029L36.667,6.733L28.667,10.161L28.667,35.457ZM24.667,35.195L24.667,10.139L16.667,6.139L16.667,31.195L24.667,35.195ZM12.667,31.173L12.667,5.877L4.667,9.305L4.667,34.601L12.667,31.173Z" fill="#B6B6B6"/>
</svg>
