<svg width="40" height="40" viewBox="0 0 40 40" fill="none" xmlns="http://www.w3.org/2000/svg" xmlns:xlink="http://www.w3.org/1999/xlink">
<path d="M17.546,1.032C18.236,0.366 19.114,0 20.023,0C20.932,0 21.81,0.366 22.5,1.032L34.554,12.657L39.286,16.918C39.481,17.094 39.644,17.311 39.764,17.557C39.885,17.804 39.961,18.074 39.988,18.354C40.016,18.633 39.994,18.916 39.925,19.186C39.855,19.456 39.739,19.709 39.583,19.928C39.427,20.148 39.234,20.331 39.015,20.466C38.796,20.602 38.555,20.688 38.307,20.719C38.058,20.75 37.807,20.725 37.567,20.647C37.327,20.569 37.103,20.438 36.908,20.262L35.243,18.763L35.243,35.718C35.243,36.854 34.842,37.943 34.129,38.746C33.415,39.549 32.447,40 31.438,40L23.828,40L23.828,29.295C23.828,28.159 23.427,27.07 22.713,26.267C22,25.464 21.032,25.013 20.023,25.013C19.014,25.013 18.046,25.464 17.332,26.267C16.619,27.07 16.218,28.159 16.218,29.295L16.218,40L8.608,40C7.599,40 6.631,39.549 5.917,38.746C5.204,37.943 4.803,36.854 4.803,35.718L4.803,18.761L3.138,20.26C2.944,20.446 2.719,20.587 2.476,20.673C2.233,20.76 1.977,20.79 1.723,20.763C1.47,20.736 1.223,20.652 0.999,20.516C0.775,20.38 0.577,20.194 0.418,19.971C0.258,19.747 0.141,19.489 0.071,19.213C0.002,18.937 -0.017,18.648 0.015,18.364C0.047,18.079 0.129,17.805 0.257,17.557C0.385,17.309 0.556,17.092 0.76,16.92L5.491,12.659L17.546,1.032L17.546,1.032Z" clip-rule="evenodd" fill-rule="evenodd" fill="#FFFFFF"/>
</svg>
