<svg width="50" height="34" viewBox="0 0 50 34" fill="none" xmlns="http://www.w3.org/2000/svg" xmlns:xlink="http://www.w3.org/1999/xlink">
<path d="M5,11L5,10L4,10L4,11L5,11ZM9.18,11L9.18,12L9.386,12L9.574,11.919L9.18,11ZM13,9.36L13.395,10.279L14,10.019L14,9.36L13,9.36ZM13,7L13,6L12,6L12,7L13,7ZM31.24,7L32.139,6.562L31.865,6L31.24,6L31.24,7ZM37.08,19L36.181,19.438L36.455,20L37.08,20L37.08,19ZM39.08,19L39.08,20L40.08,20L40.08,19L39.08,19ZM39.08,13L39.08,12L38.08,12L38.08,13L39.08,13ZM44.96,13L45.792,12.445L45.495,12L44.96,12L44.96,13ZM47.08,19.42L48.08,19.42L48.08,19.395L48.079,19.37L47.08,19.42ZM47.08,25.86L48.04,26.142L48.08,26.004L48.08,25.86L47.08,25.86ZM44.6,32.98L44.6,33.98L45.298,33.98L45.539,33.325L44.6,32.98ZM39,32.98L38,32.98L38,33.98L39,33.98L39,32.98ZM39,28.98L40,28.98L40,27.98L39,27.98L39,28.98ZM35,28.98L35,27.98L34,27.98L34,28.98L35,28.98ZM35,32.98L35,33.98L36,33.98L36,32.98L35,32.98ZM17.8,32.98L17.118,33.712L17.406,33.98L17.8,33.98L17.8,32.98ZM11.36,26.98L12.042,26.248L11.754,25.98L11.36,25.98L11.36,26.98ZM5,26.98L4,26.98L4,27.98L5,27.98L5,26.98ZM5,12L9.18,12L9.18,10L5,10L5,12ZM9.574,11.919L13.395,10.279L12.605,8.441L8.785,10.081L9.574,11.919ZM14,9.36L14,7L12,7L12,9.36L14,9.36ZM13,8L31.24,8L31.24,6L13,6L13,8ZM30.341,7.438L36.181,19.438L37.979,18.562L32.139,6.562L30.341,7.438ZM37.08,20L39.08,20L39.08,18L37.08,18L37.08,20ZM40.08,19L40.08,13L38.08,13L38.08,19L40.08,19ZM39.08,14L44.96,14L44.96,12L39.08,12L39.08,14ZM44.128,13.555C45.301,15.314 45.976,17.358 46.081,19.47L48.079,19.37C47.955,16.898 47.165,14.505 45.792,12.445L44.128,13.555ZM46.08,19.42L46.08,25.86L48.08,25.86L48.08,19.42L46.08,19.42ZM46.12,25.578C45.86,26.466 45.251,28.217 44.696,29.774C44.42,30.547 44.162,31.262 43.972,31.785C43.877,32.046 43.799,32.259 43.745,32.406C43.718,32.48 43.697,32.537 43.683,32.576C43.676,32.596 43.67,32.61 43.667,32.62C43.665,32.625 43.664,32.629 43.663,32.631C43.662,32.633 43.662,32.634 43.662,32.634C43.662,32.635 43.661,32.635 43.661,32.635C43.661,32.635 43.661,32.635 43.661,32.635C43.661,32.635 43.661,32.635 44.6,32.98C45.539,33.325 45.539,33.325 45.539,33.325C45.539,33.325 45.539,33.325 45.539,33.325C45.539,33.324 45.539,33.324 45.539,33.324C45.539,33.323 45.54,33.322 45.54,33.321C45.541,33.318 45.542,33.314 45.544,33.309C45.548,33.299 45.554,33.284 45.561,33.264C45.575,33.225 45.596,33.167 45.624,33.093C45.678,32.944 45.756,32.73 45.851,32.468C46.042,31.943 46.302,31.223 46.579,30.446C47.129,28.903 47.76,27.094 48.04,26.142L46.12,25.578ZM44.6,31.98L39,31.98L39,33.98L44.6,33.98L44.6,31.98ZM40,32.98L40,28.98L38,28.98L38,32.98L40,32.98ZM39,27.98L35,27.98L35,29.98L39,29.98L39,27.98ZM34,28.98L34,32.98L36,32.98L36,28.98L34,28.98ZM35,31.98L17.8,31.98L17.8,33.98L35,33.98L35,31.98ZM18.482,32.248L12.042,26.248L10.678,27.712L17.118,33.712L18.482,32.248ZM11.36,25.98L5,25.98L5,27.98L11.36,27.98L11.36,25.98ZM6,26.98L6,11L4,11L4,26.98L6,26.98ZM14,2L30,2L30,0L14,0L14,2ZM30,0L14,0L14,2L30,2L30,0ZM22,1L22,7L24,7L24,1L22,1ZM24,7L24,1L22,1L22,7L24,7ZM2,28L2,10L0,10L0,28L2,28ZM0,10L0,28L2,28L2,10L0,10ZM1,20L5,20L5,18L1,18L1,20Z" fill="#FFFFFF"/>
</svg>
